<svg xmlns="http://www.w3.org/2000/svg" viewBox="0 0 800 450" preserveAspectRatio="xMidYMid slice" role="img" aria-label="ETFs 101: How an ETF Actually Works, From Your Buy Order to the Fund"><defs><linearGradient id="g1h64a0" x1="0" y1="0" x2="1" y2="1"><stop offset="0" stop-color="#231d2d"/><stop offset="1" stop-color="#3b3050"/></linearGradient><linearGradient id="g1h64a0a" x1="0" y1="0" x2="0" y2="1"><stop offset="0" stop-color="#c4b5fd" stop-opacity=".35"/><stop offset="1" stop-color="#c4b5fd" stop-opacity="0"/></linearGradient></defs><rect width="800" height="450" fill="url(#g1h64a0)"/><line x1="0" y1="0" x2="0" y2="450" stroke="rgba(255,255,255,.05)"/><line x1="40" y1="0" x2="40" y2="450" stroke="rgba(255,255,255,.05)"/><line x1="80" y1="0" x2="80" y2="450" stroke="rgba(255,255,255,.05)"/><line x1="120" y1="0" x2="120" y2="450" stroke="rgba(255,255,255,.05)"/><line x1="160" y1="0" x2="160" y2="450" stroke="rgba(255,255,255,.05)"/><line x1="200" y1="0" x2="200" y2="450" stroke="rgba(255,255,255,.05)"/><line x1="240" y1="0" x2="240" y2="450" stroke="rgba(255,255,255,.05)"/><line x1="280" y1="0" x2="280" y2="450" stroke="rgba(255,255,255,.05)"/><line x1="320" y1="0" x2="320" y2="450" stroke="rgba(255,255,255,.05)"/><line x1="360" y1="0" x2="360" y2="450" stroke="rgba(255,255,255,.05)"/><line x1="400" y1="0" x2="400" y2="450" stroke="rgba(255,255,255,.05)"/><line x1="440" y1="0" x2="440" y2="450" stroke="rgba(255,255,255,.05)"/><line x1="480" y1="0" x2="480" y2="450" stroke="rgba(255,255,255,.05)"/><line x1="520" y1="0" x2="520" y2="450" stroke="rgba(255,255,255,.05)"/><line x1="560" y1="0" x2="560" y2="450" stroke="rgba(255,255,255,.05)"/><line x1="600" y1="0" x2="600" y2="450" stroke="rgba(255,255,255,.05)"/><line x1="640" y1="0" x2="640" y2="450" stroke="rgba(255,255,255,.05)"/><line x1="680" y1="0" x2="680" y2="450" stroke="rgba(255,255,255,.05)"/><line x1="720" y1="0" x2="720" y2="450" stroke="rgba(255,255,255,.05)"/><line x1="760" y1="0" x2="760" y2="450" stroke="rgba(255,255,255,.05)"/><line x1="800" y1="0" x2="800" y2="450" stroke="rgba(255,255,255,.05)"/><line x1="0" y1="0" x2="800" y2="0" stroke="rgba(255,255,255,.05)"/><line x1="0" y1="40" x2="800" y2="40" stroke="rgba(255,255,255,.05)"/><line x1="0" y1="80" x2="800" y2="80" stroke="rgba(255,255,255,.05)"/><line x1="0" y1="120" x2="800" y2="120" stroke="rgba(255,255,255,.05)"/><line x1="0" y1="160" x2="800" y2="160" stroke="rgba(255,255,255,.05)"/><line x1="0" y1="200" x2="800" y2="200" stroke="rgba(255,255,255,.05)"/><line x1="0" y1="240" x2="800" y2="240" stroke="rgba(255,255,255,.05)"/><line x1="0" y1="280" x2="800" y2="280" stroke="rgba(255,255,255,.05)"/><line x1="0" y1="320" x2="800" y2="320" stroke="rgba(255,255,255,.05)"/><line x1="0" y1="360" x2="800" y2="360" stroke="rgba(255,255,255,.05)"/><line x1="0" y1="400" x2="800" y2="400" stroke="rgba(255,255,255,.05)"/><line x1="0" y1="440" x2="800" y2="440" stroke="rgba(255,255,255,.05)"/><circle cx="580" cy="225" r="40" fill="none" stroke="#c4b5fd" stroke-opacity="0.70" stroke-width="6"/><circle cx="580" cy="225" r="74" fill="none" stroke="#c4b5fd" stroke-opacity="0.62" stroke-width="2"/><circle cx="580" cy="225" r="108" fill="none" stroke="#c4b5fd" stroke-opacity="0.54" stroke-width="2"/><circle cx="580" cy="225" r="142" fill="none" stroke="#c4b5fd" stroke-opacity="0.46" stroke-width="2"/><circle cx="580" cy="225" r="176" fill="none" stroke="#c4b5fd" stroke-opacity="0.38" stroke-width="2"/><circle cx="580" cy="225" r="210" fill="none" stroke="#c4b5fd" stroke-opacity="0.30" stroke-width="2"/><circle cx="580" cy="225" r="244" fill="none" stroke="#c4b5fd" stroke-opacity="0.22" stroke-width="2"/><rect x="70" y="120" width="208" height="18" rx="9" fill="#fff" fill-opacity="0.15"/><rect x="70" y="168" width="205" height="18" rx="9" fill="#fff" fill-opacity="0.27"/><rect x="70" y="216" width="219" height="18" rx="9" fill="#fff" fill-opacity="0.39"/><rect x="70" y="264" width="255" height="18" rx="9" fill="#fff" fill-opacity="0.51"/><rect x="70" y="312" width="236" height="18" rx="9" fill="#fff" fill-opacity="0.63"/><text x="40" y="58" fill="#fff" fill-opacity=".85" font-family="Inter,Arial,sans-serif" font-weight="800" font-size="22" letter-spacing="3">ETF 101</text></svg>